<?xml version="1.0"?>
<svg xmlns="http://www.w3.org/2000/svg" xmlns:xlink="http://www.w3.org/1999/xlink" xmlns:svgjs="http://svgjs.com/svgjs" version="1.1" width="512" height="512" x="0" y="0" viewBox="0 0 512 512" style="enable-background:new 0 0 512 512" xml:space="preserve" class=""><g><g xmlns="http://www.w3.org/2000/svg"><path d="m152 153.889-31.056 62.111h62.112z" fill="#ffffff" data-original="#000000" style="" class=""/><path d="m368 330.511c14.461-14.68 27.987-32.6 31.254-50.511h-62.508c3.265 17.9 16.778 35.817 31.254 50.511z" fill="#ffffff" data-original="#000000" style="" class=""/><path d="m152 320a120 120 0 1 0 -19.393-238.441 8.019 8.019 0 0 1 -4.861-.742l-39.746-19.873v33.211a8 8 0 0 1 -3.5 6.611 120.01 120.01 0 0 0 67.5 219.234zm-7.155-187.578a8 8 0 0 1 14.31 0l64 128-14.31 7.156-17.789-35.578h-78.112l-17.789 35.578-14.31-7.156z" fill="#ffffff" data-original="#000000" style="" class=""/><path d="m360 192a118.629 118.629 0 0 0 -73.029 24.772 135.946 135.946 0 0 1 -47.927 87.647l1.187.073c-.153 2.486-.231 5.008-.231 7.508a120.1 120.1 0 0 0 139.393 118.441 7.984 7.984 0 0 1 4.861.742l39.746 19.873v-33.211a8 8 0 0 1 3.5-6.611 120.01 120.01 0 0 0 -67.5-219.234zm80 88h-24.557c-3.048 22.151-18.219 43.532-35.835 61.515q.834.741 1.66 1.464a343.7 343.7 0 0 0 46.763 34.111l-8.062 13.82a348.326 348.326 0 0 1 -51.969-38.291 348.326 348.326 0 0 1 -51.969 38.291l-4.031-6.91-4.033-6.909a345.1 345.1 0 0 0 46.947-34.272q.735-.643 1.476-1.3c-17.616-17.983-32.787-39.364-35.835-61.515h-24.555v-16.004h52.686l-18.343-18.343 11.314-11.314 29.657 29.657h68.686z" fill="#ffffff" data-original="#000000" style="" class=""/><path d="m272 440h-168a32.036 32.036 0 0 1 -32-32v-80h-16v80a48.054 48.054 0 0 0 48 48h148.686l-10.343 10.343 11.314 11.314 24-24a8 8 0 0 0 -5.657-13.657z" fill="#ffffff" data-original="#000000" style="" class=""/><path d="m240 72h168a32.036 32.036 0 0 1 32 32v80h16v-80a48.054 48.054 0 0 0 -48-48h-148.686l10.343-10.343-11.314-11.314-24 24a8 8 0 0 0 5.657 13.657z" fill="#ffffff" data-original="#000000" style="" class=""/></g></g></svg>
